<svg xmlns="http://www.w3.org/2000/svg" x="0px" y="0px"
width="500" height="500"
viewBox="0 0 100 100"
style=" fill:#000000;">
<path fill="#b77748" d="M43 83h-6.03C34.25 83 32 80.72 32 78v-8.24c5.06-3.23 7-5.76 7-5.76l7 2c-2 6-7 8-7 8v5C43.11 79 43 83 43 83zM73 83l-5.96-.01-3.39-.01h-.47V66c2.07-.04 3.98-.79 5.48-2H69v15C72.7 79 73 83 73 83z"></path><path fill="#fcba7f" d="M77.73,24.195c-2.904-5.813-6.917-6.164-9.04-6.164h-3.284c-3.33,0-5.52,2.348-6.49,4.919c-0.486,1.289-4.458,12.043-5.835,15.624C51.704,42.154,48.433,43,46,43H33.5c-0.442,0-2.5,0-2.5,0c-3.234-0.745-8.215-2.527-9.5-7c-1.225-4.264,0.1-9.251,3.619-14.577c0.616-0.933,0.536-2.221-0.326-2.933c-0.986-0.815-2.425-0.58-3.115,0.455c-4.318,6.476-5.57,12.978-4.074,18.144C19.014,41.948,22.288,45.998,25,48c-1.157,1.798-2,3-2,7c0,12-6,15-6,15l0,8.067C17,80.791,19.209,83,21.933,83H28c0,0,0.108-4-4-4v-5c11.1-4.933,15-10,15-10c6.167,0,7.133,4,17,4v10c0,2.75,2.25,4.995,5.001,4.989l6.033-0.015c0,0-0.333-3.974-4.033-3.974V66h0c4.969,0,8.996-4.032,8.989-9.001c-0.006-4.416,0-8.556,0.006-13.003C71.997,41.786,73.79,40,76,40h0c12.325,0,11-10,11-10S79.784,28.305,77.73,24.195z"></path><path fill="#fcba7f" d="M87.04,30.82c0,2.4-0.89,9.18-11.04,9.18c-2.21,0-4,1.79-4.01,4c0,4.44-0.01,8.58,0,13c0,0.01,0,0.01,0,0.02c0,2.82-1.3,5.33-3.33,6.98c-1.5,1.21-3.41,1.96-5.48,2H63v13c0.06,0,0.12,0,0.18,0.01v3.97L61,82.99C58.25,83,56,80.75,56,78V68c-9.87,0-10.83-4-17-4c0,0-1.94,2.53-7,5.76c-2.1,1.33-4.74,2.79-8,4.24v5c4.11,0,4,4,4,4h-6.07C19.21,83,17,80.79,17,78.07V70c0,0,6-3,6-15c0-4,0.84-5.2,2-7c-2.71-2-5.99-6.05-7.4-10.91c-1.49-5.17-0.24-11.67,4.08-18.15c0.69-1.03,2.13-1.26,3.11-0.45c0.87,0.71,0.95,2,0.33,2.93C21.6,26.75,20.28,31.74,21.5,36c1.29,4.47,6.27,6.26,9.5,7c0,0,2.06,0,2.5,0H46c2.43,0,5.7-0.85,7.08-4.43c1.38-3.58,5.35-14.33,5.84-15.62c0.96-2.57,3.16-4.92,6.49-4.92h3.28c2.12,0,6.14,0.35,9.04,6.17C79.78,28.3,87,30,87,30S87.04,30.31,87.04,30.82z"></path><path fill="#fcba7f" d="M67.03,82.97l-3.38,0.01h-0.47v-3.97C66.71,79.13,67.03,82.97,67.03,82.97z"></path><path fill="#d68f53" d="M55,36v20c0,1.5-1.19,5.19-3,7s-3.74,2.5-6.5,2.5c0,0-5-2-6.5-1.5L25.26,47.48c-2.71-2-6.25-5.53-7.66-10.39c-1.49-5.17-0.24-11.67,4.08-18.15c0.69-1.03,2.13-1.26,3.11-0.45c0.87,0.71,0.95,2,0.33,2.93C21.6,26.75,20.28,31.74,21.5,36c1.29,4.47,6.27,6.26,9.5,7c0,0,2.06,0,2.5,0H46c2.43,0,5.7-0.85,7.08-4.43c0.28-0.73,0.67-1.77,1.12-2.96L55,36z"></path><path fill="#b77748" d="M67.654,29.12c-0.826-2.007-3.056-3.058-5.154-2.446c0,0-2,5.616-2,10.211c0,2.553,1.5,5.616,4.5,5.616s4.5-3.063,4.5-5.616C69.5,34.239,68.56,31.319,67.654,29.12z"></path><path fill="#1f212b" d="M85 29A2 2 0 1 0 85 33 2 2 0 1 0 85 29zM74.5 26A1.5 1.5 0 1 0 74.5 29 1.5 1.5 0 1 0 74.5 26zM65 43c-3.248 0-5-3.151-5-6.116 0-2.697.672-5.725 1.236-7.79.073-.267.346-.421.614-.351.266.073.423.348.351.614C61.653 31.364 61 34.298 61 36.884 61 39.008 62.241 42 65 42s4-2.992 4-5.116c0-2.632-.983-5.572-1.808-7.574-.73-1.774-2.688-2.702-4.552-2.156-.267.078-.543-.075-.62-.34s.075-.543.34-.62c2.355-.688 4.832.489 5.757 2.735C68.976 31.015 70 34.089 70 36.884 70 39.849 68.248 43 65 43z"></path><path fill="#1f212b" d="M87.991,29.869c-0.054-0.412-0.358-0.747-0.762-0.842c-0.068-0.016-6.787-1.641-8.604-5.278c-3.357-6.718-8.308-6.718-9.935-6.718h-3.284c-3.335,0-6.111,2.081-7.426,5.566c-0.139,0.367-0.559,1.499-1.121,3.015c-1.395,3.757-3.729,10.045-4.711,12.603C50.881,41.508,47.752,42,46,42H31.115c-3.378-0.794-7.576-2.527-8.654-6.276c-1.124-3.915,0.051-8.541,3.493-13.75c0.931-1.409,0.706-3.239-0.524-4.255c-0.682-0.564-1.57-0.812-2.441-0.686c-0.872,0.128-1.652,0.623-2.143,1.357c-4.36,6.54-5.853,13.279-4.202,18.977c1.414,4.873,4.515,8.746,7.027,10.856C22.71,49.767,22,51.305,22,55c0,11.139-5.232,13.993-5.447,14.105C16.214,69.275,16,69.621,16,70l0,8.067C16,81.338,18.662,84,21.934,84H28c0.542,0,0.985-0.431,1-0.973c0.002-0.088,0.042-2.185-1.389-3.656c-0.681-0.699-1.556-1.134-2.611-1.297v-3.427c2.307-1.05,4.295-2.101,6-3.107V78c0,3.309,2.679,6,5.973,6H43c0.542,0,0.985-0.431,1-0.973c0.002-0.088,0.042-2.185-1.389-3.656c-0.681-0.699-1.556-1.134-2.611-1.297v-3.442c1.397-0.728,4.754-2.87,6.586-7.341c2.013,0.834,4.484,1.587,8.414,1.696V78c0,1.598,0.626,3.102,1.762,4.236c1.134,1.131,2.634,1.753,4.227,1.753c0.005,0,0.009,0,0.014,0l6.033-0.015c0.002,0,0.004-0.001,0.006-0.001l0,0.016L72.998,84c0,0,0.001,0,0.002,0c0.278,0,0.543-0.116,0.732-0.319s0.286-0.478,0.265-0.755c-0.115-1.538-1.111-4.313-3.997-4.838V64.133c0.022-0.022,0.047-0.041,0.069-0.063c1.887-1.89,2.924-4.401,2.92-7.072c-0.005-3.883-0.001-7.553,0.004-11.407l0.002-1.593C72.997,42.345,74.345,41,76,41c4.365,0,7.629-1.199,9.702-3.564C88.529,34.209,88.015,30.044,87.991,29.869z M38.628,73.071C38.249,73.224,38,73.591,38,74v5c0,0.552,0.448,1,1,1c0.944,0,1.673,0.254,2.168,0.756c0.366,0.371,0.571,0.836,0.686,1.244h-4.881C34.819,82,33,80.168,33,78v-7.704c3.733-2.438,5.722-4.459,6.457-5.287c2.169,0.079,3.645,0.722,5.293,1.472C42.777,71.324,38.669,73.055,38.628,73.071z M69,80c1.687,0,2.43,1.106,2.756,1.998l-3.891-0.007c-0.387-1.527-1.484-3.473-3.865-3.903V66.951c1.423-0.14,2.78-0.581,4-1.288V79C68,79.552,68.448,80,69,80z M84.197,36.117C82.521,38.03,79.763,39,76,39c-2.756,0-5.002,2.241-5.005,4.995l-0.002,1.593c-0.005,3.855-0.009,7.527-0.004,11.412c0.003,2.136-0.826,4.144-2.335,5.655C67.144,64.167,65.136,65,63,65c-0.552,0-1,0.448-1,1v13c0,0.552,0.448,1,1,1c1.686,0,2.441,1.092,2.777,1.977l-4.778,0.012c-0.003,0-0.006,0-0.009,0c-1.059,0-2.059-0.415-2.814-1.169C57.417,80.064,57,79.062,57,78V68c0-0.552-0.448-1-1-1c-5.292,0-7.923-1.2-10.244-2.259C43.794,63.846,41.94,63,39,63c-0.311,0-0.603,0.144-0.792,0.39c-0.038,0.049-3.87,4.921-14.614,9.696C23.233,73.247,23,73.605,23,74v5c0,0.552,0.448,1,1,1c0.944,0,1.674,0.254,2.168,0.756c0.366,0.371,0.571,0.836,0.686,1.244h-4.92C19.765,82,18,80.236,18,78.067l0-7.512c1.589-1.102,6-5.104,6-15.555c0-3.602,0.696-4.682,1.75-6.319l0.09-0.14c0.286-0.443,0.177-1.032-0.247-1.346c-2.357-1.74-5.613-5.503-7.029-10.385c-1.462-5.048-0.024-11.357,3.945-17.31c0.179-0.268,0.452-0.441,0.77-0.488c0.315-0.045,0.626,0.042,0.876,0.249c0.483,0.399,0.445,1.132,0.129,1.611c-3.779,5.719-5.039,10.902-3.746,15.405c1.075,3.74,4.614,6.402,10.236,7.698C30.849,43.991,30.924,44,31,44h15c3.855,0,6.776-1.847,8.015-5.068c0.987-2.569,3.323-8.864,4.719-12.625c0.561-1.511,0.979-2.64,1.117-3.005c0.378-1.002,1.896-4.271,5.555-4.271h3.284c1.461,0,5.342,0,8.146,5.611c1.852,3.706,7.231,5.564,9.207,6.136C86.051,31.893,85.846,34.235,84.197,36.117z"></path><path fill="#1f212b" d="M45.5 66c-.276 0-.5-.224-.5-.5s.224-.5.5-.5c5.005 0 8.5-3.907 8.5-9.5 0-.276.224-.516.5-.516s.5.208.5.484V55.5C55 61.584 51.005 66 45.5 66zM54.5 53.969c-.276 0-.5-.224-.5-.5v-2c0-.276.224-.5.5-.5s.5.224.5.5v2C55 53.745 54.776 53.969 54.5 53.969zM54.5 49.969c-.276 0-.5-.224-.5-.5V35.5c0-.276.224-.5.5-.5s.5.224.5.5v13.969C55 49.745 54.776 49.969 54.5 49.969z"></path><g><path fill="#1f212b" d="M39,64.5c-0.14,0-0.28-0.059-0.378-0.173L26.988,50.845c-0.181-0.209-0.157-0.525,0.052-0.705c0.208-0.181,0.525-0.158,0.705,0.052l11.634,13.481c0.181,0.209,0.157,0.525-0.052,0.705C39.232,64.46,39.116,64.5,39,64.5z"></path></g></svg>