<?xml version="1.0" encoding="UTF-8"?>
<svg xmlns="http://www.w3.org/2000/svg" x="0px" y="0px" width="500" height="500" viewBox="-10 -10 100 100" style=" fill:#000000;">
   
  <path fill="#f1bc19" d="M77 12A1 1 0 1 0 77 14A1 1 0 1 0 77 12Z" /> 
   <path fill="#e6edb7" d="M50 13A37 37 0 1 0 50 87A37 37 0 1 0 50 13Z" /> 
   <path fill="#f1bc19" d="M83 11A4 4 0 1 0 83 19A4 4 0 1 0 83 11Z" />
   <path fill="#88ae45" d="M87 22A2 2 0 1 0 87 26A2 2 0 1 0 87 22Z" />
   <path fill="#fbcd59" d="M81 74A2 2 0 1 0 81 78 2 2 0 1 0 81 74zM15 59A4 4 0 1 0 15 67 4 4 0 1 0 15 59z" />
   <path fill="#88ae45" d="M25 85A2 2 0 1 0 25 89A2 2 0 1 0 25 85Z" /> 
   <path fill="#fff" d="M18.5 49A2.5 2.5 0 1 0 18.5 54 2.5 2.5 0 1 0 18.5 49zM79.5 32A1.5 1.5 0 1 0 79.5 35 1.5 1.5 0 1 0 79.5 32z" />
   <path fill="#c29b67" d="M46.223,74.208h-4.074c-1.838,0-3.358-1.739-3.358-3.813v-6.283 c3.419-2.463,4.729-5.379,4.729-5.379l4.729,1.525c-1.351,4.575-4.954,7.087-4.954,7.087v3.813 C46.072,71.158,46.223,74.208,46.223,74.208z" />
   <path fill="#472b29" d="M46.224,74.908h-4.074c-2.237,0-4.058-2.024-4.058-4.513v-6.283c0-0.225,0.108-0.437,0.291-0.568 c3.209-2.312,4.487-5.071,4.5-5.099c0.147-0.323,0.513-0.489,0.853-0.378l4.729,1.525c0.361,0.116,0.564,0.5,0.456,0.864 c-1.188,4.024-3.995,6.504-4.925,7.237v2.822c2.17,0.376,2.869,2.489,2.927,3.656c0.01,0.191-0.06,0.379-0.192,0.518 C46.599,74.829,46.415,74.908,46.224,74.908z M39.492,64.466v5.93c0,1.688,1.217,3.112,2.657,3.112h3.239 c-0.211-0.706-0.745-1.649-2.093-1.649c-0.387,0-0.7-0.313-0.7-0.7v-3.813c0-0.229,0.112-0.442,0.299-0.573 c0.032-0.023,3.08-2.197,4.472-6.063l-3.498-1.128C43.321,60.549,41.971,62.602,39.492,64.466z" />
   <path fill="#c29b67" d="M69.292,74.25l-4.412-0.008l-2.51-0.008h-0.348V61.262c1.532-0.031,2.946-0.604,4.057-1.528h0.252 v11.46C69.07,71.194,69.292,74.25,69.292,74.25z" />
   <path fill="#472b29" d="M69.292,74.95L69.292,74.95l-7.27-0.016c-0.387,0-0.7-0.313-0.7-0.7V61.262 c0-0.381,0.306-0.692,0.687-0.7c1.309-0.025,2.596-0.511,3.622-1.366c0.126-0.104,0.284-0.162,0.448-0.162h0.251 c0.387,0,0.7,0.313,0.7,0.7v10.82c2.139,0.38,2.875,2.482,2.96,3.646c0.014,0.194-0.054,0.386-0.186,0.528 C69.672,74.869,69.486,74.95,69.292,74.95z M62.723,73.535l5.716,0.014c-0.229-0.712-0.781-1.654-2.108-1.654 c-0.387,0-0.7-0.313-0.7-0.7V60.911c-0.89,0.538-1.884,0.882-2.907,1.003V73.535z" />
   <path fill="#fcba7f" d="M73.128,29.35c-2.217-4.437-5.28-4.705-6.9-4.705h-2.507c-2.542,0-4.214,1.792-4.954,3.755 c-0.371,0.984-3.403,9.193-4.454,11.926c-1.051,2.733-3.548,3.378-5.405,3.378h-9.542c-0.337,0-1.908,0-1.908,0 c-2.469-0.569-6.271-1.929-7.252-5.343c-0.935-3.255,0.076-7.061,2.762-11.127c0.47-0.712,0.409-1.695-0.249-2.239 c-0.753-0.622-1.851-0.443-2.378,0.347c-3.296,4.943-4.252,9.906-3.11,13.85c1.076,3.709,3.575,6.8,5.646,8.329 c-0.883,1.372-1.527,2.29-1.527,5.343c0,9.16-4.58,11.45-4.58,11.45v6.158c0,2.079,1.686,3.765,3.765,3.765h4.631 c0,0,0.082-3.053-3.053-3.053v-3.817c8.473-3.765,11.45-7.633,11.45-7.633c4.707,0,5.445,3.053,12.976,3.053v7.633 c0,2.099,1.717,3.813,3.817,3.808l4.605-0.011c0,0-0.254-3.033-3.078-3.033V61.26l0,0c3.793,0,6.867-3.078,6.861-6.871 c-0.005-3.371,0-6.531,0.005-9.925c0.001-1.687,1.369-3.05,3.056-3.05l0,0c9.408,0,8.397-7.633,8.397-7.633 S74.696,32.487,73.128,29.35z" />
   <path fill="#f6cca4" d="M80.204,33.781c0,0-5.511-1.298-7.076-4.427c-2.214-4.442-5.282-4.71-6.9-4.71h-2.504 c-2.542,0-4.221,1.794-4.954,3.756c-0.374,0.984-3.404,9.19-4.458,11.923c-1.053,2.733-3.549,3.382-5.404,3.382h-9.542 c-0.336,0-1.908,0-1.908,0c-2.466-0.565-6.267-1.932-7.252-5.344c-0.931-3.251,0.076-7.061,2.763-11.129 c0.473-0.71,0.412-1.695-0.252-2.236c-0.748-0.619-1.952-0.448-2.479,0.338c-3.298,4.946-4.252,9.908-3.114,13.854 c1.076,3.71,3.685,6.806,5.754,8.333c-0.885,1.374-1.441,2.614-1.441,5.667c0,9.16-4.666,11.126-4.666,11.126v6.16 c0,2.076,1.687,3.763,3.763,3.763h4.633c0,0,0.177-3.278-2.96-3.278v-3.817c2.488-1.107,4.411-1.996,6.013-3.011 c3.862-2.465,5.343-4.397,5.343-4.397c4.71,0,5.526,3.05,13.06,3.05v7.633c0,2.099,1.634,3.82,3.733,3.812l1.664-0.008h0.359 l2.58-0.007c0,0,0.15-2.83-2.544-2.922c-0.046-0.007-0.092-0.007-0.137-0.007v-9.923h0.137c1.58-0.031,2.643-0.704,3.788-1.628 c1.55-1.259,2.17-2.894,2.17-5.046c0-0.008,0-0.008,0-0.016c-0.008-3.374,0-6.534,0-9.923c0.008-1.687,1.746-3.335,3.433-3.335 c7.748,0,8.427-5.175,8.427-7.007C80.235,34.018,80.204,33.781,80.204,33.781z" />
   <g>
      <path fill="#c29b67" d="M55.778,38.361v15.266c0,1.145-0.908,3.962-2.29,5.343c-1.382,1.382-2.855,1.908-4.962,1.908 c0,0-3.817-1.527-4.962-1.145l-10.488-12.61c-2.069-1.527-4.771-4.221-5.847-7.931c-1.137-3.946-0.183-8.908,3.114-13.854 c0.527-0.786,1.626-0.962,2.374-0.343c0.664,0.542,0.725,1.527,0.252,2.237c-2.687,4.068-3.694,7.877-2.763,11.129 c0.985,3.412,4.786,4.778,7.252,5.343c0,0,1.572,0,1.908,0h9.542c1.855,0,4.351-0.649,5.404-3.382 c0.214-0.557,0.511-1.351,0.855-2.259L55.778,38.361z" />
   </g>
   <g>
      <path fill="#472b29" d="M35.832,74.937h-5.297c-2.461,0-4.464-2.002-4.464-4.463V64.5c-0.009-0.453,0.148-0.714,0.429-0.832 c0.168-0.074,4.237-1.968,4.237-10.48c0-2.721,0.41-4.109,1.218-5.501c-1.979-1.631-4.434-4.619-5.502-8.304 c-1.251-4.337-0.112-9.464,3.204-14.438c0.358-0.536,0.949-0.899,1.622-0.998c0.693-0.104,1.372,0.085,1.886,0.508 c0.92,0.752,1.088,2.113,0.387,3.165c-2.634,3.989-3.534,7.539-2.672,10.548c0.837,2.899,4.064,4.23,6.658,4.836h11.37 c1.352,0,3.767-0.381,4.751-2.934c0.719-1.863,2.358-6.276,3.444-9.202c0.507-1.363,0.894-2.404,1.013-2.718 c0.759-2.031,2.653-4.088,5.631-4.088h2.503c1.233,0,4.965-0.119,7.506,4.979c1.397,2.796,6.558,4.047,6.609,4.059 c0.364,0.088,0.57,0.505,0.57,1.307c0,1.809-0.658,7.708-9.128,7.708c-1.322,0-2.927,1.291-2.933,2.573l-0.002,3.354 c-0.002,2.18-0.004,4.325,0.002,6.563c0,2.485-0.571,4.325-2.229,5.671c-1.187,0.958-2.244,1.597-3.667,1.75v8.615 c0.691,0.107,1.304,0.422,1.772,0.934c0.981,1.07,0.911,2.61,0.908,2.676l-0.035,0.661l-5.264,0.017c-0.005,0-0.011,0-0.017,0 c-1.168,0-2.265-0.452-3.09-1.274c-0.857-0.854-1.33-2.005-1.33-3.237v-6.941c-3.897-0.1-5.95-1.024-7.772-1.845 c-1.346-0.606-2.518-1.135-4.266-1.192c-0.563,0.639-2.174,2.294-5.288,4.282c-1.592,1.008-3.451,1.875-5.69,2.875v2.713 c0.781,0.119,1.429,0.445,1.93,0.975c1.114,1.176,1.034,2.917,1.03,2.991L35.832,74.937z M27.472,64.73v5.743 c0,1.688,1.374,3.063,3.063,3.063h3.879c-0.071-0.404-0.233-0.915-0.598-1.296c-0.374-0.392-0.9-0.582-1.608-0.582 c-0.395,0-0.646-0.252-0.7-0.783v-3.594c0.023-0.359,0.117-0.625,0.416-0.779c2.373-1.057,4.316-1.945,5.924-2.963 c3.685-2.353,5.149-4.215,5.163-4.233l0.211-0.271l0.344-0.002c2.229,0,3.653,0.642,5.161,1.321 c1.801,0.811,3.841,1.729,7.898,1.729c0.498,0.017,0.719,0.479,0.7,0.916v7.417c0,0.858,0.326,1.655,0.918,2.245 c0.563,0.561,1.359,0.879,2.112,0.866l3.839-0.013c-0.068-0.323-0.206-0.705-0.479-1.001c-0.308-0.332-0.74-0.503-1.321-0.523 c-0.537-0.029-0.8-0.366-0.814-0.707V61.5c-0.025-0.407,0.421-0.771,0.838-0.839c1.305-0.025,2.218-0.56,3.349-1.473 c1.32-1.072,1.709-2.525,1.709-4.565c-0.005-2.254-0.003-4.4-0.002-6.583l0.002-3.355c0.01-2.038,2.257-3.971,4.333-3.971 c6.975,0,7.728-4.411,7.728-6.308c0-0.027,0-0.054,0-0.079c-1.463-0.42-5.618-1.832-7.032-4.66 c-2.154-4.323-5.148-4.323-6.275-4.323h-2.503c-2.845,0-4.009,2.526-4.298,3.301c-0.12,0.315-0.506,1.353-1.011,2.711 c-1.088,2.932-2.73,7.352-3.45,9.219c-0.938,2.434-3.146,3.83-6.058,3.83l-11.606-0.018c-4.263-0.979-6.948-2.995-7.768-5.832 c-0.979-3.421-0.021-7.359,2.852-11.709c0.26-0.39,0.288-0.983-0.109-1.309c-0.211-0.175-0.499-0.251-0.794-0.205 c-0.281,0.042-0.522,0.184-0.661,0.391c-3.039,4.558-4.142,9.395-3.023,13.271c1.064,3.671,3.626,6.585,5.496,7.964 c0.269,0.215,0.386,0.608,0.173,0.942c-0.778,1.208-1.329,2.295-1.329,5.288C32.138,61.163,28.705,63.977,27.472,64.73z" />
   </g>
   <g>
      <path fill="#c29b67" d="M65.437,33.109c-0.631-1.532-2.333-2.334-3.934-1.867c0,0-1.527,4.287-1.527,7.794 c0,1.949,1.145,4.287,3.435,4.287c2.29,0,3.435-2.338,3.435-4.287C66.846,37.016,66.129,34.788,65.437,33.109z" />
   </g>
   <g>
      <path fill="#472b29" d="M78.678 33.016999999999996A1.527 1.527 0 1 0 78.678 36.071A1.527 1.527 0 1 0 78.678 33.016999999999996Z" />
   </g>
   <g>
      <path fill="#472b29" d="M70.663 30.727A1.145 1.145 0 1 0 70.663 33.017A1.145 1.145 0 1 0 70.663 30.727Z" />
   </g>
   <g>
      <path fill="#472b29" d="M63.411,43.704c-2.479,0-3.817-2.405-3.817-4.668c0-2.059,0.513-4.37,0.943-5.946 c0.056-0.204,0.264-0.321,0.469-0.268c0.203,0.056,0.323,0.266,0.268,0.469c-0.418,1.532-0.917,3.772-0.917,5.746 c0,1.621,0.947,3.905,3.053,3.905c2.106,0,3.053-2.284,3.053-3.905c0-2.009-0.75-4.253-1.38-5.781 c-0.557-1.354-2.052-2.062-3.475-1.646c-0.204,0.06-0.414-0.057-0.473-0.26c-0.059-0.202,0.057-0.414,0.26-0.473 c1.798-0.525,3.688,0.373,4.394,2.088c0.656,1.592,1.437,3.939,1.437,6.072C67.228,41.299,65.891,43.704,63.411,43.704z" />
   </g>
   <g>
      <path fill="#472b29" d="M48.527,61.26c-0.211,0-0.382-0.171-0.382-0.382c0-0.211,0.171-0.382,0.382-0.382 c3.82,0,6.488-2.982,6.488-7.252c0-0.211,0.171-0.394,0.382-0.394s0.382,0.159,0.382,0.369v0.024 C55.778,57.889,52.729,61.26,48.527,61.26z" />
   </g>
   <g>
      <path fill="#472b29" d="M55.396,52.077c-0.211,0-0.382-0.171-0.382-0.382v-1.527c0-0.211,0.171-0.382,0.382-0.382 s0.382,0.171,0.382,0.382v1.527C55.778,51.906,55.607,52.077,55.396,52.077z" />
   </g>
   <g>
      <path fill="#472b29" d="M55.396,49.023c-0.211,0-0.382-0.171-0.382-0.382V37.979c0-0.211,0.171-0.382,0.382-0.382 s0.382,0.171,0.382,0.382v10.663C55.778,48.852,55.607,49.023,55.396,49.023z" />
   </g>
   <g>
      <path fill="#472b29" d="M43.565,60.115c-0.107,0-0.214-0.045-0.289-0.132l-8.88-10.291c-0.138-0.16-0.12-0.401,0.04-0.538 c0.159-0.138,0.401-0.121,0.538,0.04l8.88,10.29c0.138,0.16,0.12,0.401-0.04,0.538C43.742,60.085,43.654,60.115,43.565,60.115z" />
   </g>
</svg>